<?xml version="1.0" encoding="utf-8"?>
<!-- Generator: Adobe Illustrator 26.3.1, SVG Export Plug-In . SVG Version: 6.00 Build 0)  -->
<svg version="1.1" id="Layer_1" xmlns="http://www.w3.org/2000/svg" xmlns:xlink="http://www.w3.org/1999/xlink" x="0px" y="0px"
	 viewBox="0 0 222 48" style="enable-background:new 0 0 222 48;" xml:space="preserve">
<style type="text/css">
	.st0{fill:#FFFFFF;}
</style>
<g>
	<path class="st0" d="M37.4,1.5C25,1.5,14.9,11.6,14.9,24S25,46.5,37.4,46.5S60,36.4,60,24S49.9,1.5,37.4,1.5z M39.3,17.5l0.9-1
		l3-3.5H46l-5.8,6.8c0,0-0.6-0.8-0.9-1C39,18.3,39,17.8,39.3,17.5z M32,12.9c0,0,4.9,5.8,6.6,7.6c0.3,0.3,0.2,0.7,0,1
		c-0.9,1.1-1,1.1-1,1.1l-8.4-9.7C29.2,12.9,32,12.9,32,12.9z M35.9,30.4l-0.9,1L32,35h-2.7l5.8-6.8c0,0,0.6,0.8,0.9,1
		C36.3,29.5,36.2,30.1,35.9,30.4z M36.1,24.4C33.7,27.2,27,35,27,35h-3l9.1-10.5c0.3-0.3,0.3-0.8,0-1.2l-9-10.4H27l9,10.5
		C36.3,23.7,36.3,24.1,36.1,24.4z M43.2,35l-6.1-7.2l-0.3-0.4c-0.3-0.3-0.3-0.9,0-1.2l11.4-13.3H51L39.5,26.1
		c-0.3,0.3-0.3,0.8,0,1.2l6.6,7.7H43.2L43.2,35z M48.4,35c0,0-5-5.8-6.6-7.7c-0.2-0.2-0.3-0.5-0.2-0.8c0.1-0.1,0.2-0.3,0.3-0.4
		l0.8-0.8l8.4,9.8L48.4,35L48.4,35z"/>
	<g>
		<g>
			<rect x="72.1" y="14.7" class="st0" width="3.5" height="18"/>
			<path class="st0" d="M93.7,19.6c-1.7,0-3.3,0.7-4.3,2.2c-0.7-1.5-2.1-2.2-3.9-2.2c-1.5,0-3,0.7-3.8,2.1v-1.8h-3.3v12.9h3.3v-7.2
				c0-1.8,1.2-3.1,2.8-3.1h0.2c1.4,0,2,0.9,2,2.6v7.7H90v-7.2c0-1.8,1.2-3.1,2.8-3.1H93c1.4,0,2,0.9,2,2.6v7.7h3.3v-8.1
				c0-1.5-0.4-2.7-1.1-3.7C96.5,20.1,95.3,19.6,93.7,19.6z"/>
			<path class="st0" d="M116,19.6c-1.7,0-3.3,0.7-4.3,2.2c-0.7-1.5-2.1-2.2-3.9-2.2c-1.5,0-3,0.7-3.8,2.1v-1.8h-3.3v12.9h3.3v-7.2
				c0-1.8,1.2-3.1,2.8-3.1h0.2c1.4,0,2,0.9,2,2.6v7.7h3.3v-7.2c0-1.8,1.2-3.1,2.8-3.1h0.2c1.4,0,2,0.9,2,2.6v7.7h3.3v-8.1
				c0-1.5-0.4-2.7-1.1-3.7C118.7,20.1,117.6,19.6,116,19.6z"/>
			<path class="st0" d="M141.3,28.5v-5.9h2.9v-2.7h-2.9v-4.2H138v4.2h-3.8H131h-0.1V27c0,1.8-1.2,3.3-2.7,3.3H128
				c-1.2,0-1.9-0.9-1.9-2.6v-7.9h-3.3V28c0,1.5,0.4,2.7,1.1,3.6s1.8,1.3,3.3,1.3c1.6,0,3-0.8,3.8-2.1v1.9h3.3V22.6h3.8v6.8
				c0,2.2,1.2,3.3,3.3,3.3h3.3v-2.8h-1.8C141.6,29.9,141.3,29.7,141.3,28.5z"/>
			<path class="st0" d="M156.5,24.2c0-3-2.2-4.6-5.4-4.6s-5.3,1.8-5.5,4.2h3.4c0.1-0.8,0.9-1.5,2.1-1.5h0.2c1.2,0,2.1,0.9,2.1,2.1
				v0.3L150,25c-1.4,0.1-2.5,0.5-3.4,1.2s-1.3,1.7-1.3,3c0,2.3,1.9,3.8,4.2,3.8c1.6,0,3-0.7,3.8-1.8c0,0.7,0.1,1.2,0.2,1.6h3.1
				c-0.1-0.6-0.1-1.5-0.1-2.8V24.2L156.5,24.2z M153.3,27.5c0,1.6-1.3,2.8-2.9,2.8h-0.2c-0.9,0-1.6-0.5-1.6-1.3
				c0-0.5,0.2-0.9,0.6-1.1c0.4-0.3,0.8-0.4,1.3-0.5l2.8-0.3L153.3,27.5L153.3,27.5z"/>
			<path class="st0" d="M165.9,19.6c-1.7,0-3.2,1-3.7,1.9v-6.8h-3.3v18h3.3V31c0.6,0.9,2,1.9,3.7,1.9c3.6,0.1,5.8-3.2,5.7-6.7
				C171.7,22.8,169.5,19.5,165.9,19.6z M165.3,30.3h-0.2c-1.5,0-3-1.6-2.9-4c0-2.4,1.4-4,2.9-4h0.2c1.7,0,2.9,1.5,2.9,4
				C168.3,28.7,167,30.3,165.3,30.3z"/>
			<rect x="173.3" y="14.7" class="st0" width="3.3" height="18"/>
			<path class="st0" d="M184.5,19.6c-3.8-0.1-6.2,2.8-6.1,6.7c-0.1,4.1,2.9,6.7,6.1,6.7c3.2,0,5.2-1.8,5.8-4.3H187
				c-0.2,0.9-1.1,1.6-2.3,1.6h-0.2c-1.4,0-2.8-1.2-2.9-2.9h8.7c0-0.6,0.1-1,0.1-1.2C190.4,22.4,188.2,19.6,184.5,19.6z M181.6,24.8
				c0.1-1.5,1.2-2.5,2.7-2.5h0.2c1.4,0,2.6,0.9,2.7,2.5H181.6z"/>
		</g>
		<g>
			<path class="st0" d="M203.1,32.8l-4.1-6.2l-4.2,6.2H191l6.1-9.1l-5.7-8.6h4l3.7,5.6l3.8-5.6h3.8l-5.7,8.5l6.1,9.2H203.1
				L203.1,32.8z"/>
		</g>
	</g>
</g>
</svg>
